<svg width="60" height="30" viewBox="0 0 60 30" fill="none" xmlns="http://www.w3.org/2000/svg">
<g filter="url(#filter0_d_3661_170)">
<path d="M0 8C0 3.58172 3.58172 0 8 0H56C57.1046 0 58 0.895431 58 2V14C58 21.732 51.732 28 44 28H2C0.895432 28 0 27.1046 0 26V8Z" fill="url(#paint0_linear_3661_170)"/>
</g>
<path d="M15.214 14.354C15.214 13.69 14.852 12.222 14.066 10.738C14.052 11.234 13.65 12.436 13.354 12.756C13.156 12.196 13.106 8.45801 8.176 7.20001C8.476 10.918 4.774 10.864 4.774 14.876C4.774 17.008 6.052 18.842 7.882 19.656C7.464 17.196 9.894 16.88 9.502 14.346C12.062 15.878 12.664 17.67 11.972 19.712C14.016 18.856 15.378 16.714 15.214 14.354Z" fill="url(#paint1_linear_3661_170)"/>
<path d="M17.1534 20L19.0852 8.36364H21.8977L21.125 13.0341H25.7102L26.483 8.36364H29.2898L27.358 20H24.5511L25.3239 15.3239H20.7386L19.9659 20H17.1534ZM41.0426 14.3636C40.8305 15.6174 40.4138 16.6761 39.7926 17.5398C39.1752 18.3996 38.4233 19.0511 37.5369 19.4943C36.6544 19.9375 35.7055 20.1591 34.6903 20.1591C33.6184 20.1591 32.6903 19.9205 31.9062 19.4432C31.1222 18.9659 30.5521 18.2708 30.196 17.358C29.8438 16.4451 29.7756 15.3371 29.9915 14.0341C30.196 12.7803 30.607 11.7197 31.2244 10.8523C31.8456 9.98485 32.6013 9.32765 33.4915 8.88068C34.3854 8.42992 35.3438 8.20455 36.3665 8.20455C37.4309 8.20455 38.3532 8.44508 39.1335 8.92614C39.9176 9.4072 40.4858 10.1061 40.8381 11.0227C41.1903 11.9394 41.2585 13.053 41.0426 14.3636ZM38.2301 14.0341C38.3475 13.303 38.3475 12.6875 38.2301 12.1875C38.1165 11.6875 37.893 11.3106 37.5597 11.0568C37.2263 10.7992 36.7926 10.6705 36.2585 10.6705C35.6676 10.6705 35.1335 10.8163 34.6562 11.108C34.1828 11.3958 33.7869 11.8163 33.4688 12.3693C33.1506 12.9186 32.929 13.5833 32.804 14.3636C32.6752 15.1023 32.6714 15.7178 32.7926 16.2102C32.9176 16.7027 33.1506 17.0739 33.4915 17.3239C33.8324 17.5701 34.2661 17.6932 34.7926 17.6932C35.3797 17.6932 35.9081 17.5511 36.3778 17.267C36.8475 16.983 37.2396 16.5682 37.554 16.0227C37.8722 15.4773 38.0975 14.8144 38.2301 14.0341ZM42.3807 10.6477L42.767 8.36364H52.6023L52.2159 10.6477H48.6875L47.142 20H44.3693L45.9148 10.6477H42.3807Z" fill="#D2602E"/>
<defs>
<filter id="filter0_d_3661_170" x="0" y="0" width="60" height="30" filterUnits="userSpaceOnUse" color-interpolation-filters="sRGB">
<feFlood flood-opacity="0" result="BackgroundImageFix"/>
<feColorMatrix in="SourceAlpha" type="matrix" values="0 0 0 0 0 0 0 0 0 0 0 0 0 0 0 0 0 0 127 0" result="hardAlpha"/>
<feOffset dx="2" dy="2"/>
<feComposite in2="hardAlpha" operator="out"/>
<feColorMatrix type="matrix" values="0 0 0 0 0 0 0 0 0 0 0 0 0 0 0 0 0 0 0.2 0"/>
<feBlend mode="normal" in2="BackgroundImageFix" result="effect1_dropShadow_3661_170"/>
<feBlend mode="normal" in="SourceGraphic" in2="effect1_dropShadow_3661_170" result="shape"/>
</filter>
<linearGradient id="paint0_linear_3661_170" x1="0.500001" y1="1.4" x2="52.3056" y2="30.9686" gradientUnits="userSpaceOnUse">
<stop stop-color="#EB9632"/>
<stop offset="0.135" stop-color="#EF8D33"/>
<stop offset="0.3" stop-color="#FFE81B"/>
<stop offset="0.35" stop-color="#FFF7AD"/>
<stop offset="0.49" stop-color="#FFFCDF"/>
<stop offset="0.545" stop-color="#FFF7AD"/>
<stop offset="0.7" stop-color="#FFE81B"/>
<stop offset="0.75" stop-color="#FFE81B"/>
<stop offset="0.86" stop-color="#EF8D33"/>
<stop offset="1" stop-color="#F4972B"/>
</linearGradient>
<linearGradient id="paint1_linear_3661_170" x1="10.0007" y1="7.20001" x2="10.0007" y2="19.712" gradientUnits="userSpaceOnUse">
<stop stop-color="#EF7937"/>
<stop offset="1" stop-color="#D73A24"/>
</linearGradient>
</defs>
</svg>
