<svg width="50" height="50" viewBox="0 0 50 50" fill="none" xmlns="http://www.w3.org/2000/svg">
<path d="M0.362007 40.9011L9.09711 49.638C9.58143 50.1207 10.3615 50.1207 10.8458 49.638L36.0824 24.4L42.6793 39.6087C42.9008 40.1177 43.4346 40.4184 43.9848 40.3401C44.535 40.2635 44.9674 39.8294 45.0383 39.2759L49.9894 1.3958C50.0396 1.01608 49.9095 0.63306 49.6385 0.362065C49.3667 0.0902452 48.9845 -0.0390751 48.604 0.0103466L10.7239 4.96158C10.4463 4.99782 10.1975 5.12467 10.0097 5.3133C9.82441 5.49863 9.69839 5.74162 9.65968 6.01591C9.58225 6.56531 9.8829 7.09989 10.3919 7.32064L25.6003 13.916L0.362007 39.154C-0.120667 39.6375 -0.120667 40.4184 0.362007 40.9011Z" fill="url(#paint0_linear_2038_3582)" fill-opacity="0.7"/>
<defs>
<linearGradient id="paint0_linear_2038_3582" x1="8.04381" y1="50.1939" x2="41.5066" y2="9.00987" gradientUnits="userSpaceOnUse">
<stop stop-color="#04052E"/>
<stop offset="1" stop-color="#2F359C"/>
</linearGradient>
</defs>
</svg>
