<svg width="44" height="40" viewBox="0 0 44 40" fill="none" xmlns="http://www.w3.org/2000/svg">
<g clip-path="url(#clip0_389_264)">
<path d="M27.1324 0.420097L32.6111 2.57735L37.2405 13.5112L34.0488 30.7863L20.0163 39.9943L12.8946 37.1558L0 24.763L3.0474 7.2268L14.2712 0L27.1324 0.420097ZM16.869 12.6256L14.3766 18.1663L18.4953 21.0048L22.936 19.3528L22.7584 13.971L16.869 12.6256Z" fill="#190232"/>
<path d="M3.04736 7.22673L7.16608 9.76434L11.6012 7.23809L18.029 1.60085L14.2711 0.00561523L3.04736 7.22673Z" fill="#2B2063"/>
<path d="M32.8774 2.92374L43.2575 16.3612L39.8659 34.6921L20.0162 39.9944L4.55713 25.8758L7.16602 9.7645L18.7672 2.29927L19.3223 2.146L32.6443 2.57745L32.9107 2.92374H32.8774ZM41.2037 16.9005L31.6396 4.50194L19.5166 4.11023L8.91453 10.9226L6.62204 25.1151L20.538 37.8372L38.2007 33.1196L41.1981 16.9005H41.2037ZM22.3975 16.8721L20.5713 20.9084L23.6242 23.0203L26.9547 21.7883L26.8437 17.8826L22.403 16.8721H22.3975ZM18.5119 20.846L21.3373 14.6013L28.7032 16.3044L28.8975 23.1168L23.3467 25.1832L18.1622 21.601L18.5064 20.8516L18.5119 20.846Z" fill="#3C17B8"/>
<path d="M32.1225 3.54235L42.2306 16.6335L39.0389 33.9028L20.2826 38.9156L5.5896 25.4952L8.04306 10.349L19.2668 3.12793L32.1225 3.54235ZM21.8646 15.7479L19.3667 21.2659L23.4855 24.1044L27.9261 22.4524L27.754 17.0933L21.8646 15.7479Z" fill="#AA5EFF"/>
<path fill-rule="evenodd" clip-rule="evenodd" d="M19.3447 21.2659L23.5189 25.1319L27.9985 22.4183L27.9096 22.4069V22.458L23.4856 24.11L19.378 21.2715L19.3447 21.2659Z" fill="#EF9BC8"/>
<path fill-rule="evenodd" clip-rule="evenodd" d="M15.6421 5.46123L21.0153 4.24636L31.1344 5.31363L41.2092 16.9458L40.915 23.7638L42.2305 16.6335L32.1225 3.54241L19.2668 3.12231L15.6421 5.46123Z" fill="#EF9BC8"/>
<path fill-rule="evenodd" clip-rule="evenodd" d="M11.1017 12.0239C11.4788 12.4689 11.9686 12.7989 12.5172 12.9777C13.6274 13.3751 14.8041 12.9493 14.9429 12.4838C15.0262 12.1942 15.5979 10.9907 14.2824 10.5309C13.4053 10.2243 11.074 10.7296 10.9519 11.1951C10.8298 11.6606 10.9519 11.7628 11.1184 12.0239H11.1017Z" fill="#190232"/>
<path fill-rule="evenodd" clip-rule="evenodd" d="M11.1016 12.3305C11.4798 12.7768 11.9717 13.107 12.5226 13.2842C13.6605 13.6816 14.804 13.2842 14.9428 12.7903C15.0316 12.4951 15.5978 11.2973 14.2878 10.8375C13.4107 10.5309 11.0738 11.0305 10.9573 11.496C10.8407 11.9615 10.9573 12.0637 11.1238 12.3305H11.1016Z" fill="#EF9BC8"/>
<path fill-rule="evenodd" clip-rule="evenodd" d="M11.0405 12.1829C11.4199 12.6278 11.9115 12.9577 12.4616 13.1366C13.5995 13.534 14.7429 13.1082 14.8817 12.6427C14.9705 12.3532 15.5367 11.1497 14.2267 10.6898C13.3497 10.3833 11.0128 10.8885 10.8962 11.354C10.7797 11.8195 10.8962 11.9217 11.0628 12.1829H11.0405Z" fill="#3C17B8"/>
<path fill-rule="evenodd" clip-rule="evenodd" d="M34.1321 20.2782C34.5302 20.7431 35.0444 21.0885 35.6197 21.2774C36.8187 21.6975 38.0232 21.2774 38.1675 20.7608C38.2619 20.4372 38.8559 19.1939 37.4737 18.7341C36.5578 18.4105 34.1043 18.9441 33.9545 19.4323C33.8046 19.9206 33.9545 20 34.1321 20.3066V20.2782Z" fill="#190232"/>
<path fill-rule="evenodd" clip-rule="evenodd" d="M34.1653 20.6016C34.5649 21.0674 35.0811 21.4128 35.6584 21.6008C36.8574 22.0152 38.0619 21.6008 38.2063 21.0785C38.2951 20.7776 38.8946 19.5117 37.5124 19.0291C36.5965 18.7055 34.1375 19.2335 33.9932 19.7274C33.8489 20.2213 33.9932 20.2951 34.1653 20.6016Z" fill="#EF9BC8"/>
<path fill-rule="evenodd" clip-rule="evenodd" d="M34.0933 20.4371C34.4897 20.9078 35.0069 21.2559 35.5864 21.4419C36.7799 21.8563 37.9844 21.4135 38.1287 20.9196C38.2231 20.6131 38.817 19.3528 37.4404 18.8702C36.519 18.5467 34.0655 19.0746 33.9156 19.5628C33.7658 20.051 33.9156 20.1305 34.0933 20.4371Z" fill="#3C17B8"/>
<path fill-rule="evenodd" clip-rule="evenodd" d="M24.8566 36.2021C24.0737 36.5964 23.2091 36.7912 22.3366 36.7698C20.4826 36.7698 19.0061 35.7423 19.0061 35.1008C19.0061 34.6977 18.7341 32.9549 20.8711 32.9492C22.2977 32.9492 25.495 34.5955 25.4839 35.22C25.4728 35.8445 25.2507 35.9126 24.8566 36.1851V36.2021Z" fill="#190232"/>
<path fill-rule="evenodd" clip-rule="evenodd" d="M24.6623 36.5654C23.8802 36.9622 23.015 37.1571 22.1422 37.1331C20.2883 37.1331 18.8117 36.1055 18.8117 35.464C18.8117 35.0666 18.5397 33.3181 20.6768 33.3181C22.1034 33.3181 25.3007 34.9588 25.2896 35.5889C25.2784 36.2191 25.0564 36.2815 24.6623 36.554V36.5654Z" fill="#EF9BC8"/>
<path fill-rule="evenodd" clip-rule="evenodd" d="M24.84 36.4179C24.0548 36.8116 23.1886 37.0063 22.3143 36.9856C20.4604 36.9856 18.9839 35.9581 18.9839 35.3166C18.9839 34.9135 18.7119 33.1707 20.8489 33.165C22.281 33.165 25.4728 34.8057 25.4672 35.4358C25.4617 36.066 25.2285 36.1284 24.84 36.4066V36.4179Z" fill="#3C17B8"/>
<path fill-rule="evenodd" clip-rule="evenodd" d="M23.7408 30.0881C23.3764 30.3807 22.9569 30.5933 22.5085 30.7125C21.6037 30.9737 20.8821 30.7126 20.8877 30.3719C20.8411 30.0763 20.9106 29.7737 21.0811 29.5302C21.2516 29.2867 21.5093 29.122 21.798 29.0719C22.4919 28.8732 24.0516 29.2195 24.0183 29.5317C23.985 29.844 23.9018 29.9007 23.713 30.0994L23.7408 30.0881Z" fill="#190232"/>
<path fill-rule="evenodd" clip-rule="evenodd" d="M23.6466 30.3151C23.2815 30.6066 22.8622 30.8191 22.4143 30.9396C21.5095 31.2008 20.7879 30.9396 20.7879 30.599C20.7414 30.3025 20.8117 29.9992 20.9834 29.7556C21.155 29.5119 21.4141 29.3477 21.7038 29.299C22.3977 29.0946 23.9574 29.4466 23.9241 29.7588C23.8908 30.071 23.8076 30.1278 23.6188 30.3265L23.6466 30.3151Z" fill="#EF9BC8"/>
<path fill-rule="evenodd" clip-rule="evenodd" d="M23.7298 30.2186C23.3641 30.5091 22.945 30.7214 22.4975 30.8431C21.5983 31.1042 20.8711 30.809 20.8767 30.4968C20.8301 30.2011 20.8996 29.8986 21.0701 29.6551C21.2406 29.4116 21.4983 29.2469 21.787 29.1968C22.4809 28.9981 24.0407 29.3501 24.0074 29.6623C23.9741 29.9745 23.8963 30.0313 23.7021 30.23L23.7298 30.2186Z" fill="#3C17B8"/>
<path fill-rule="evenodd" clip-rule="evenodd" d="M28.5812 32.5292C28.2474 32.7522 27.8672 32.8922 27.4711 32.9379C26.7217 33.0401 26.2332 32.62 26.3054 32.3078C26.3215 32.0316 26.4284 31.7692 26.6088 31.5631C26.7892 31.357 27.0324 31.2193 27.299 31.1724C27.8541 31.0986 28.9642 31.7401 28.9143 32.0353C28.8951 32.1418 28.8527 32.2425 28.7903 32.33C28.7278 32.4175 28.6469 32.4894 28.5535 32.5405L28.5812 32.5292Z" fill="#190232"/>
<path fill-rule="evenodd" clip-rule="evenodd" d="M28.4645 32.7164C28.1308 32.9394 27.7505 33.0794 27.3544 33.1252C26.605 33.2273 26.1165 32.8073 26.1887 32.495C26.2026 32.2191 26.308 31.9562 26.4877 31.7498C26.6673 31.5434 26.9103 31.4057 27.1767 31.3596C27.7318 31.2858 28.8697 31.9273 28.7976 32.2282C28.7766 32.3333 28.7334 32.4324 28.6711 32.5187C28.6088 32.605 28.5288 32.6763 28.4368 32.7278L28.4645 32.7164Z" fill="#EF9BC8"/>
<path fill-rule="evenodd" clip-rule="evenodd" d="M28.5535 32.6313C28.2284 32.8521 27.8581 32.9938 27.4711 33.0457C26.7162 33.1423 26.2278 32.7222 26.3055 32.4099C26.3183 32.1336 26.4235 31.8702 26.6033 31.6636C26.7831 31.457 27.0267 31.3197 27.2935 31.2745C27.8486 31.1951 28.9588 31.8422 28.9088 32.1374C28.8588 32.4326 28.7367 32.4837 28.5535 32.637V32.6313Z" fill="#3C17B8"/>
<path d="M40.4487 26.2502C39.5883 27.1472 39.3385 27.9136 38.023 28.5892C37.1464 29.0522 36.1389 29.1867 35.1754 28.9695L33.3992 29.6224C33.3992 29.6224 33.6157 29.5429 36.8962 29.804C37.6233 29.8551 39.1165 29.7473 39.7105 29.9346C39.938 30.0084 39.5384 30.9565 39.6772 30.8997C40.149 30.701 40.1157 29.8267 40.2322 29.4691C40.411 28.8975 40.4844 28.2969 40.4487 27.6979V26.2502Z" fill="#3C17B8"/>
<path fill-rule="evenodd" clip-rule="evenodd" d="M39.1001 31.5811C39.2393 31.1247 39.3433 30.6577 39.4109 30.1846L33.2717 29.9575L38.9447 30.599L39.1001 31.5811Z" fill="#EF9BC8"/>
<path d="M7.8378 10.9111C7.51585 11.5242 7.64907 13.0684 9.36982 14.1868C11.2238 15.3959 14.1713 15.4868 14.7985 15.4243L17.2909 16.5313C17.2909 16.5313 16.9911 16.3951 11.5069 16.6789C10.2857 16.73 7.95992 16.503 6.8553 16.7811C6.44454 16.8833 6.5278 18.4047 6.33907 18.3026C5.68963 17.9676 6.26136 16.5995 6.26136 16.0318C6.38961 14.4737 6.61955 12.9261 6.94967 11.3994L7.8378 10.9282V10.9111Z" fill="#3C17B8"/>
<path fill-rule="evenodd" clip-rule="evenodd" d="M6.87744 19.4095C6.87744 19.4095 7.10502 17.2011 7.23269 17.1841C7.36036 17.1671 17.3407 17.0706 17.3407 17.0706L7.69896 17.8597L6.87744 19.4095Z" fill="#EF9BC8"/>
</g>
<defs>
<clipPath id="clip0_389_264">
<rect width="44" height="40" fill="white"/>
</clipPath>
</defs>
</svg>
