<svg width="23" height="23" viewBox="0 0 23 23" fill="none" xmlns="http://www.w3.org/2000/svg">
    <circle cx="11.5" cy="11.5" r="11.5" fill="#A5FFBE"/>
    <path d="M3.15625 8.35534V7.90625H5.89075V8.35534L5.10178 8.45089C5.0958 8.84583 5.08982 9.24714 5.08385 9.65482C5.08385 10.0561 5.08385 10.4606 5.08385 10.8683V11.4512C5.08385 11.7888 5.08385 12.1519 5.08385 12.5404C5.08982 12.929 5.0958 13.3239 5.10178 13.7253H6.91282L7.16386 12.4067H7.79145L7.70179 14.2412H3.15625V13.7921L3.90936 13.7061C3.92131 13.3048 3.92729 12.9099 3.92729 12.5213C3.92729 12.1264 3.92729 11.7474 3.92729 11.3843V10.8683C3.92729 10.4543 3.92729 10.0466 3.92729 9.64526C3.92729 9.23758 3.92131 8.83627 3.90936 8.44133L3.15625 8.35534Z" fill="#303B33"/>
    <path d="M10.5786 14.375C10.1721 14.375 9.80452 14.2794 9.47579 14.0883C9.15302 13.8972 8.89601 13.6202 8.70475 13.2571C8.51348 12.894 8.41785 12.4608 8.41785 11.9576C8.41785 11.448 8.51647 11.0116 8.71371 10.6485C8.91693 10.2854 9.18291 10.0084 9.51165 9.81725C9.84039 9.62615 10.196 9.5306 10.5786 9.5306C10.9611 9.5306 11.3167 9.62615 11.6455 9.81725C11.9742 10.0084 12.2402 10.2854 12.4434 10.6485C12.6466 11.0053 12.7482 11.4416 12.7482 11.9576C12.7482 12.4672 12.6496 12.9035 12.4524 13.2666C12.2611 13.6233 12.0011 13.8972 11.6723 14.0883C11.3496 14.2794 10.985 14.375 10.5786 14.375ZM10.5786 13.9068C10.9013 13.9068 11.1464 13.7476 11.3137 13.4291C11.4871 13.1106 11.5737 12.6232 11.5737 11.9671C11.5737 10.6549 11.242 9.9988 10.5786 9.9988C9.92107 9.9988 9.59234 10.6549 9.59234 11.9671C9.59234 12.6232 9.67602 13.1106 9.84337 13.4291C10.0107 13.7476 10.2558 13.9068 10.5786 13.9068Z" fill="#303B33"/>
    <path d="M15.6042 14.375C15.1977 14.375 14.8301 14.2794 14.5014 14.0883C14.1786 13.8972 13.9216 13.6202 13.7304 13.2571C13.5391 12.894 13.4435 12.4608 13.4435 11.9576C13.4435 11.448 13.5421 11.0116 13.7393 10.6485C13.9426 10.2854 14.2085 10.0084 14.5373 9.81725C14.866 9.62615 15.2216 9.5306 15.6042 9.5306C15.9867 9.5306 16.3423 9.62615 16.6711 9.81725C16.9998 10.0084 17.2658 10.2854 17.469 10.6485C17.6722 11.0053 17.7738 11.4416 17.7738 11.9576C17.7738 12.4672 17.6752 12.9035 17.478 13.2666C17.2867 13.6233 17.0267 13.8972 16.698 14.0883C16.3752 14.2794 16.0106 14.375 15.6042 14.375ZM15.6042 13.9068C15.9269 13.9068 16.172 13.7476 16.3393 13.4291C16.5127 13.1106 16.5993 12.6232 16.5993 11.9671C16.5993 10.6549 16.2676 9.9988 15.6042 9.9988C14.9467 9.9988 14.618 10.6549 14.618 11.9671C14.618 12.6232 14.7016 13.1106 14.869 13.4291C15.0364 13.7476 15.2814 13.9068 15.6042 13.9068Z" fill="#303B33"/>
    <path d="M19.9415 14.375C19.5829 14.375 19.302 14.2794 19.0988 14.0883C18.8956 13.8972 18.794 13.5915 18.794 13.1711C18.794 13.0246 18.794 12.8876 18.794 12.7602C18.7999 12.6264 18.8029 12.4672 18.8029 12.2824V10.2472H18.1395V9.75037L18.8657 9.65482L19.2064 8.34578H19.9326L19.8967 9.66437H20.9726V10.2472H19.8878V13.066C19.8878 13.3017 19.9296 13.4736 20.0133 13.5819C20.1029 13.6902 20.2195 13.7444 20.3629 13.7444C20.5243 13.7444 20.7066 13.6647 20.9098 13.5055L21.125 13.7444C21.0114 13.9418 20.856 14.0979 20.6588 14.2126C20.4615 14.3209 20.2225 14.375 19.9415 14.375Z" fill="#303B33"/>
</svg>
