<svg width="101" height="19" viewBox="0 0 101 19" fill="none" xmlns="http://www.w3.org/2000/svg">
<path d="M3.13513 4.536V18H0.423125V1.2H3.37513C4.91113 1.92 5.63113 3.408 6.15913 5.616C6.75912 3.408 7.55113 1.92 9.08713 1.2H12.0391V18H9.32713V4.488C8.36713 5.424 7.67113 7.104 7.31113 9.264V18H4.91113V9.216C4.57513 7.104 3.99913 5.472 3.13513 4.536ZM16.1898 1.152V18H13.4778V1.152H16.1898ZM17.4103 9.24C17.4343 4.44 18.9223 0.935999 22.2343 0.935999C24.5383 0.935999 25.7623 3.12 25.7863 6L23.1703 6.384C23.1943 4.824 23.0023 3.624 22.2343 3.624C20.9383 3.624 20.1463 6.24 20.1223 9.24C20.0983 11.544 20.1463 15.552 21.7543 15.552C23.0263 15.552 23.2903 13.176 23.3383 11.088V10.992C22.9062 11.088 22.4743 11.256 22.0183 11.472L20.7943 9.048C22.0183 8.424 23.1463 8.112 24.4183 8.112C24.9463 8.112 25.4743 8.16 26.0503 8.256V18H23.3383V16.92C23.0023 17.592 22.4983 18.048 21.7543 18.168C17.7943 18.816 17.3863 13.608 17.4103 9.24ZM30.0883 11.136V18H27.3763V1.2H30.0883V8.616H32.7283V1.2H35.4403V18H32.7283V11.136H30.0883ZM42.3879 3.888V17.976H39.6759V3.888H38.7639V5.088H36.5319V1.2H45.5079V5.088H43.2759V3.888H42.3879ZM52.091 12.528V17.976H49.403V12.696C48.635 11.448 48.035 10.008 47.555 8.448C46.859 6.192 46.475 3.768 46.499 1.2H49.187C49.163 3.48 49.499 5.64 50.123 7.68C50.315 8.304 50.483 8.88 50.675 9.456C51.659 6.48 52.163 4.44 52.163 1.2H54.899C54.899 4.992 54.035 9.216 52.091 12.528ZM60.2339 15L62.3699 13.344C62.8979 14.76 64.0499 15.744 64.9139 15.504C65.2499 15.408 65.5619 15.12 65.7299 14.64C66.5459 12.288 64.6979 11.76 62.8739 10.824C61.4099 10.056 59.9459 9.024 59.9699 6.48C60.0179 3.384 62.3699 0.935999 65.0339 0.935999C67.3379 0.935999 68.5619 3.12 68.5859 6L65.9699 6.384C65.9939 4.824 65.6819 3.624 64.9139 3.624C63.6179 3.624 62.3699 5.448 62.6579 6.72C63.0419 8.4 65.4899 8.784 67.1219 10.176C68.2019 11.112 68.9939 12.528 68.4419 15.096C68.0339 16.968 66.5699 18.192 65.0099 18.24C62.3459 18.312 61.1939 16.728 60.2339 15ZM79.7347 18H76.9747C76.5427 16.752 76.1827 14.832 75.8707 13.608C75.5587 14.832 75.1987 16.752 74.7667 18H72.0067C70.9987 15.48 70.3507 12.936 69.8707 10.272C69.3187 7.296 69.2707 4.272 69.3187 1.2H72.0307C72.0067 4.128 71.9827 6.96 72.4867 9.768C72.7267 11.064 73.0147 12.312 73.3507 13.56C74.1187 10.872 74.4787 7.512 74.5267 4.728C74.5027 3.552 74.5267 2.376 74.5267 1.2H77.2147C77.2147 2.376 77.2387 3.552 77.2147 4.728C77.2627 7.512 77.6227 10.872 78.3907 13.56C78.7267 12.312 79.0147 11.064 79.2547 9.768C79.7587 6.96 79.7347 4.128 79.7107 1.2H82.4227C82.4707 4.272 82.4227 7.296 81.8707 10.272C81.3907 12.936 80.7427 15.48 79.7347 18ZM88.2014 1.2C90.1454 6.816 91.1294 12.024 91.1294 18H88.4414C88.4414 16.752 88.3934 15.504 88.2974 14.256H85.3214C85.2494 15.48 85.2254 16.728 85.2254 18H82.5374C82.4894 14.928 82.7774 11.88 83.3054 8.904C83.8094 6.24 84.4334 3.72 85.4414 1.2H88.2014ZM85.5614 11.856H88.0574C87.9614 11.04 87.8174 10.224 87.6734 9.408C87.4574 8.112 87.1454 6.144 86.7854 4.896C86.4494 6.144 86.1614 8.112 85.9214 9.408C85.7774 10.224 85.6574 11.04 85.5614 11.856ZM94.7992 14.04V18H92.0872V1.2H95.2072C97.9432 1.2 99.0952 2.64 99.4792 3.696C100.991 7.728 98.3992 11.736 94.7992 14.04ZM94.7992 3.84V10.944C97.1272 9 97.4392 7.056 97.2232 5.496C97.1032 4.536 96.3592 3.84 94.7992 3.84Z" fill="white"/>
</svg>
