<svg width="131" height="26" viewBox="0 0 131 26" fill="none" xmlns="http://www.w3.org/2000/svg">
<path d="M4.05368 5.68466C5.32594 7.06403 6.17411 9.46908 6.66888 12.5815V25.5263H10.2029V12.6522C10.7331 9.46908 11.7579 6.99329 13.1716 5.61392V25.5263H17.1651V0.768449H12.8182C10.5564 1.8295 9.39011 4.02234 8.5066 7.27624C7.7291 4.02234 6.66888 1.8295 4.40708 0.768449H0.0601807V25.5263H4.05368V5.68466ZM26.9525 0.768449H22.8883C21.404 4.48213 20.4852 8.19582 19.743 12.1217C18.9655 16.5074 18.5414 20.9992 18.6121 25.5263H22.5703C22.5703 23.6518 22.6056 21.8127 22.7116 20.0089H27.0939C27.2352 21.848 27.3059 23.6872 27.3059 25.5263H31.2641C31.2641 16.7196 29.8151 9.04466 26.9525 0.768449ZM23.065 16.472C23.2064 15.2695 23.3831 14.067 23.5951 12.8644C23.9486 10.9546 24.3726 8.05434 24.8674 6.21519C25.3975 8.05434 25.857 10.9546 26.175 12.8644C26.3871 14.067 26.5991 15.2695 26.7405 16.472H23.065ZM32.0112 12.6169C31.9759 19.0539 32.5767 26.7289 38.4079 25.7739C39.5035 25.5971 40.2456 24.9251 40.7404 23.9348V25.5263H44.7339V11.1668C43.8857 11.0253 43.1082 10.9546 42.3307 10.9546C40.4576 10.9546 38.7966 11.4143 36.9943 12.3339L38.7966 15.9061C39.4681 15.5878 40.1042 15.3402 40.7404 15.1988V15.3402C40.6697 18.4173 40.2809 21.9188 38.4079 21.9188C36.0401 21.9188 35.9694 16.0122 36.0047 12.6169C36.0401 8.19582 37.2063 4.34066 39.1147 4.34066C40.2456 4.34066 40.5283 6.10908 40.493 8.40803L44.3451 7.84213C44.3098 3.59792 42.5074 0.379395 39.1147 0.379395C34.2377 0.379395 32.0466 5.54318 32.0112 12.6169ZM50.6799 0.697712H46.6864V25.5263H50.6799V0.697712ZM52.477 12.6169C52.4417 19.0539 52.9364 25.88 58.8737 25.88C61.8423 25.88 64.1394 24.3238 65.0583 21.1053L61.4182 19.832C60.9941 21.3529 59.8985 22.0602 58.8737 21.9188C56.5412 21.6004 56.4352 16.0122 56.4705 12.6169C56.5058 8.19582 57.6721 4.34066 59.5805 4.34066C60.7114 4.34066 60.9941 6.10908 60.9588 8.40803L64.8109 7.84213C64.7756 3.59792 62.9732 0.379395 59.5805 0.379395C54.7035 0.379395 52.5123 5.54318 52.477 12.6169ZM72.5337 21.1053C73.9473 23.6518 75.6437 25.9861 79.5665 25.88C81.8636 25.8093 84.0194 24.0055 84.6202 21.2468C85.4331 17.4623 84.2668 15.3756 82.6765 13.9962C80.2733 11.9449 76.6686 11.379 76.1031 8.90318C75.679 7.02866 77.5167 4.34066 79.4251 4.34066C80.556 4.34066 81.0155 6.10908 80.9801 8.40803L84.8323 7.84213C84.7969 3.59792 82.9945 0.379395 79.6018 0.379395C75.679 0.379395 72.2156 3.98698 72.145 8.5495C72.1096 12.2986 74.2654 13.8194 76.4212 14.9512C79.1071 16.3306 81.8283 17.1087 80.6267 20.5748C80.3793 21.2821 79.9199 21.7066 79.4251 21.848C78.1529 22.2017 76.4565 20.7516 75.679 18.6649L72.5337 21.1053ZM101.249 25.5263C102.733 21.8127 103.688 18.0636 104.394 14.1377C105.207 9.75203 105.278 5.29561 105.207 0.768449H101.214C101.249 5.0834 101.284 9.25687 100.542 13.395C100.189 15.3049 99.7647 17.144 99.27 18.9832C98.1391 15.0219 97.6089 10.0703 97.5383 5.96761C97.5736 4.23455 97.5383 2.5015 97.5383 0.768449H93.5801C93.5801 2.5015 93.5448 4.23455 93.5801 5.96761C93.5094 10.0703 92.9793 15.0219 91.8484 18.9832C91.3536 17.144 90.9296 15.3049 90.5761 13.395C89.834 9.25687 89.8693 5.0834 89.9047 0.768449H85.9112C85.8405 5.29561 85.9112 9.75203 86.724 14.1377C87.4308 18.0636 88.385 21.8127 89.8693 25.5263H93.9335C94.5696 23.6872 95.0998 20.8577 95.5592 19.0539C96.0186 20.8577 96.5487 23.6872 97.1849 25.5263H101.249ZM113.717 0.768449H109.652C108.168 4.48213 107.249 8.19582 106.507 12.1217C105.73 16.5074 105.306 20.9992 105.376 25.5263H109.334C109.334 23.6518 109.37 21.8127 109.476 20.0089H113.858C113.999 21.848 114.07 23.6872 114.07 25.5263H118.028C118.028 16.7196 116.579 9.04466 113.717 0.768449ZM109.829 16.472C109.971 15.2695 110.147 14.067 110.359 12.8644C110.713 10.9546 111.137 8.05434 111.632 6.21519C112.162 8.05434 112.621 10.9546 112.939 12.8644C113.151 14.067 113.363 15.2695 113.505 16.472H109.829ZM123.432 19.6906C128.733 16.2952 132.55 10.3887 130.323 4.44676C129.758 2.89055 128.062 0.768449 124.033 0.768449H119.438V25.5263H123.432V19.6906ZM123.432 4.65898C125.729 4.65898 126.825 5.68466 127.001 7.0994C127.319 9.39834 126.86 12.2632 123.432 15.128V4.65898Z" fill="white"/>
</svg>
