<svg width="82" height="15" viewBox="0 0 82 15" fill="none" xmlns="http://www.w3.org/2000/svg">
<g clip-path="url(#clip0_1039_10935)">
<path fill-rule="evenodd" clip-rule="evenodd" d="M28.2906 7.50136L20.2652 0.00268555V5.49416L12.2965 10.9927L20.2652 10.998V15L28.2906 7.50136Z" fill="#4E529A"/>
<path fill-rule="evenodd" clip-rule="evenodd" d="M0 7.49867L8.02543 14.9973V9.5634L15.9354 4.0613L8.02543 4.05599V0L0 7.49867Z" fill="#8C8DFC"/>
<path d="M40.6448 11.9176H34.4871V10.2635L38.0125 6.58804H34.5779V4.96228H40.5842V6.5314L36.9528 10.2776H40.6448V11.9176Z" fill="black" fill-opacity="0.9"/>
<path d="M49.0486 4.96221L46.0682 7.88805L49.1092 11.9166H46.6434L44.6763 9.25893L43.8447 10.0784V11.9157H41.8322V1.68237H43.8447V7.54909L46.4164 4.96221H49.0486Z" fill="black" fill-opacity="0.9"/>
<path d="M57.7997 4.28338L55.9235 4.82058C55.8525 4.46215 55.6614 4.13735 55.3482 3.8453C55.0359 3.55325 54.5761 3.40722 53.9715 3.40722C53.4776 3.40722 53.0745 3.53466 52.7614 3.78866C52.4491 4.03381 52.293 4.33029 52.293 4.67898C52.293 5.2914 52.6809 5.66842 53.4577 5.81002L54.9555 6.07906C55.9036 6.24898 56.6397 6.6021 57.1648 7.1393C57.69 7.6765 57.952 8.30751 57.952 9.03322C57.952 9.86247 57.5991 10.5882 56.8923 11.2103C56.196 11.8228 55.2583 12.129 54.0784 12.129C53.4029 12.129 52.7926 12.0352 52.2476 11.8467C51.7026 11.6582 51.2645 11.4086 50.9315 11.0971C50.5984 10.7767 50.3363 10.4422 50.1452 10.0935C49.9635 9.73503 49.8528 9.36775 49.8121 8.99074L51.7489 8.51018C51.7991 9.04738 52.0214 9.49519 52.4141 9.85274C52.8172 10.2112 53.3773 10.3899 54.0936 10.3899C54.6376 10.3899 55.0615 10.2767 55.3643 10.051C55.6765 9.82442 55.8326 9.52794 55.8326 9.16066C55.8326 8.86861 55.7162 8.61903 55.4844 8.41106C55.263 8.19423 54.9451 8.0482 54.5316 7.97298L53.0338 7.69066C52.1662 7.52074 51.4812 7.18621 50.9769 6.68706C50.4726 6.18792 50.2209 5.56576 50.2209 4.82147C50.2209 3.93557 50.5842 3.19128 51.3099 2.58771C52.046 1.98413 52.9288 1.68323 53.9573 1.68323C54.5733 1.68323 55.123 1.76376 55.6065 1.92395C56.09 2.08414 56.4789 2.30096 56.7712 2.57443C57.0636 2.83816 57.2907 3.11163 57.4525 3.39395C57.6133 3.67538 57.7297 3.97274 57.7997 4.28338Z" fill="black" fill-opacity="0.9"/>
<path d="M61.3413 14.6593H59.2086L60.9637 11.0405L57.8016 4.96228H60.0564L62.0386 9.03332L63.8694 4.96228H66.0172L61.3413 14.6593Z" fill="black" fill-opacity="0.9"/>
<path d="M68.7933 7.91644V11.9167H66.7808V4.96228H68.7327V5.82428C68.9447 5.48532 69.2465 5.22601 69.6401 5.04636C70.0337 4.86758 70.4472 4.7782 70.8805 4.7782C71.7576 4.7782 72.4237 5.03751 72.8779 5.55524C73.3415 6.06411 73.5743 6.72345 73.5743 7.53411V11.9167H71.5618V7.8598C71.5618 7.44473 71.4454 7.11019 71.2136 6.8562C70.9912 6.6022 70.6487 6.47476 70.1851 6.47476C69.7622 6.47476 69.4234 6.61105 69.1717 6.88452C68.9191 7.15798 68.7933 7.50225 68.7933 7.91644Z" fill="black" fill-opacity="0.9"/>
<path d="M78.5058 6.48889C77.9712 6.48889 77.5227 6.66323 77.1594 7.01193C76.796 7.36062 76.6144 7.83676 76.6144 8.43945C76.6144 9.04214 76.796 9.52358 77.1594 9.88112C77.5322 10.2298 77.9863 10.4042 78.5209 10.4042C78.9949 10.4042 79.3734 10.2909 79.6563 10.0652C79.9383 9.82979 80.1304 9.5519 80.2316 9.23153L82.0019 9.78289C81.8202 10.4236 81.4266 10.975 80.822 11.437C80.2165 11.8989 79.4501 12.1299 78.5219 12.1299C77.412 12.1299 76.48 11.7812 75.7231 11.0838C74.9766 10.3767 74.6038 9.49615 74.6038 8.44033C74.6038 7.37567 74.9718 6.4942 75.7079 5.79681C76.4545 5.09943 77.3723 4.75073 78.4613 4.75073C79.4094 4.75073 80.1862 4.98172 80.7917 5.44369C81.3973 5.89593 81.7852 6.44729 81.9565 7.09777L80.1559 7.66329C79.9127 6.88006 79.363 6.48889 78.5058 6.48889Z" fill="black" fill-opacity="0.9"/>
</g>
<defs>
<clipPath id="clip0_1039_10935">
<rect width="82" height="15" fill="white"/>
</clipPath>
</defs>
</svg>
